<mxfile host="Electron" agent="Mozilla/5.0 (Windows NT 10.0; Win64; x64) AppleWebKit/537.36 (KHTML, like Gecko) draw.io/24.7.17 Chrome/128.0.6613.36 Electron/32.0.1 Safari/537.36" version="24.7.17">
  <diagram name="Page-1" id="IQtUWz2EJgx2wv_o895M">
    <mxGraphModel dx="2049" dy="1263" grid="1" gridSize="10" guides="1" tooltips="1" connect="1" arrows="1" fold="1" page="1" pageScale="1" pageWidth="1169" pageHeight="827" math="0" shadow="0">
      <root>
        <mxCell id="0" />
        <mxCell id="1" parent="0" />
        <mxCell id="2OX0B22kOYD27q_Sf0gM-5" style="rounded=0;orthogonalLoop=1;jettySize=auto;html=1;exitX=0;exitY=1;exitDx=0;exitDy=0;entryX=0.5;entryY=0;entryDx=0;entryDy=0;" edge="1" parent="1" source="2OX0B22kOYD27q_Sf0gM-2" target="2OX0B22kOYD27q_Sf0gM-3">
          <mxGeometry relative="1" as="geometry" />
        </mxCell>
        <mxCell id="2OX0B22kOYD27q_Sf0gM-22" style="edgeStyle=orthogonalEdgeStyle;rounded=0;orthogonalLoop=1;jettySize=auto;html=1;exitX=0;exitY=0.5;exitDx=0;exitDy=0;startArrow=classic;startFill=1;endArrow=none;endFill=0;" edge="1" parent="1" source="2OX0B22kOYD27q_Sf0gM-2">
          <mxGeometry relative="1" as="geometry">
            <mxPoint x="360" y="290" as="targetPoint" />
          </mxGeometry>
        </mxCell>
        <mxCell id="2OX0B22kOYD27q_Sf0gM-2" value="&lt;font color=&quot;#cc0066&quot;&gt;state_wait_rqst&lt;/font&gt;" style="ellipse;whiteSpace=wrap;html=1;" vertex="1" parent="1">
          <mxGeometry x="400" y="250" width="150" height="80" as="geometry" />
        </mxCell>
        <mxCell id="2OX0B22kOYD27q_Sf0gM-6" style="edgeStyle=orthogonalEdgeStyle;rounded=0;orthogonalLoop=1;jettySize=auto;html=1;exitX=1;exitY=0.5;exitDx=0;exitDy=0;entryX=0;entryY=0.5;entryDx=0;entryDy=0;" edge="1" parent="1" source="2OX0B22kOYD27q_Sf0gM-3" target="2OX0B22kOYD27q_Sf0gM-4">
          <mxGeometry relative="1" as="geometry" />
        </mxCell>
        <mxCell id="2OX0B22kOYD27q_Sf0gM-3" value="&lt;font color=&quot;#66cc00&quot;&gt;state_wait_to_send_ack&lt;/font&gt;" style="ellipse;whiteSpace=wrap;html=1;" vertex="1" parent="1">
          <mxGeometry x="280" y="390" width="150" height="80" as="geometry" />
        </mxCell>
        <mxCell id="2OX0B22kOYD27q_Sf0gM-7" style="rounded=0;orthogonalLoop=1;jettySize=auto;html=1;exitX=0.5;exitY=0;exitDx=0;exitDy=0;entryX=1;entryY=1;entryDx=0;entryDy=0;" edge="1" parent="1" source="2OX0B22kOYD27q_Sf0gM-4" target="2OX0B22kOYD27q_Sf0gM-2">
          <mxGeometry relative="1" as="geometry" />
        </mxCell>
        <mxCell id="2OX0B22kOYD27q_Sf0gM-4" value="&lt;font color=&quot;#007fff&quot;&gt;state_send_ack&lt;/font&gt;" style="ellipse;whiteSpace=wrap;html=1;" vertex="1" parent="1">
          <mxGeometry x="520" y="390" width="150" height="80" as="geometry" />
        </mxCell>
        <mxCell id="2OX0B22kOYD27q_Sf0gM-8" value="request == 1" style="text;html=1;align=center;verticalAlign=middle;resizable=0;points=[];autosize=1;strokeColor=none;fillColor=none;" vertex="1" parent="1">
          <mxGeometry x="310" y="330" width="90" height="30" as="geometry" />
        </mxCell>
        <mxCell id="2OX0B22kOYD27q_Sf0gM-9" value="valid == 1" style="text;html=1;align=center;verticalAlign=middle;resizable=0;points=[];autosize=1;strokeColor=none;fillColor=none;" vertex="1" parent="1">
          <mxGeometry x="550" y="330" width="80" height="30" as="geometry" />
        </mxCell>
        <mxCell id="2OX0B22kOYD27q_Sf0gM-10" value="done == 1" style="text;html=1;align=center;verticalAlign=middle;resizable=0;points=[];autosize=1;strokeColor=none;fillColor=none;" vertex="1" parent="1">
          <mxGeometry x="435" y="430" width="80" height="30" as="geometry" />
        </mxCell>
        <mxCell id="2OX0B22kOYD27q_Sf0gM-11" style="edgeStyle=orthogonalEdgeStyle;rounded=0;orthogonalLoop=1;jettySize=auto;html=1;exitX=0;exitY=0;exitDx=0;exitDy=0;entryX=1;entryY=0;entryDx=0;entryDy=0;curved=1;" edge="1" parent="1" source="2OX0B22kOYD27q_Sf0gM-2" target="2OX0B22kOYD27q_Sf0gM-2">
          <mxGeometry relative="1" as="geometry">
            <Array as="points">
              <mxPoint x="422" y="230" />
              <mxPoint x="528" y="230" />
            </Array>
          </mxGeometry>
        </mxCell>
        <mxCell id="2OX0B22kOYD27q_Sf0gM-12" style="edgeStyle=orthogonalEdgeStyle;rounded=0;orthogonalLoop=1;jettySize=auto;html=1;exitX=1;exitY=1;exitDx=0;exitDy=0;entryX=0.2;entryY=0.888;entryDx=0;entryDy=0;entryPerimeter=0;curved=1;" edge="1" parent="1" source="2OX0B22kOYD27q_Sf0gM-3" target="2OX0B22kOYD27q_Sf0gM-3">
          <mxGeometry relative="1" as="geometry">
            <Array as="points">
              <mxPoint x="408" y="490" />
              <mxPoint x="310" y="490" />
            </Array>
          </mxGeometry>
        </mxCell>
        <mxCell id="2OX0B22kOYD27q_Sf0gM-13" style="edgeStyle=orthogonalEdgeStyle;rounded=0;orthogonalLoop=1;jettySize=auto;html=1;exitX=1;exitY=1;exitDx=0;exitDy=0;entryX=0;entryY=1;entryDx=0;entryDy=0;curved=1;" edge="1" parent="1" source="2OX0B22kOYD27q_Sf0gM-4" target="2OX0B22kOYD27q_Sf0gM-4">
          <mxGeometry relative="1" as="geometry">
            <Array as="points">
              <mxPoint x="648" y="490" />
              <mxPoint x="542" y="490" />
            </Array>
          </mxGeometry>
        </mxCell>
        <mxCell id="2OX0B22kOYD27q_Sf0gM-14" value="request != 1" style="text;html=1;align=center;verticalAlign=middle;resizable=0;points=[];autosize=1;strokeColor=none;fillColor=none;" vertex="1" parent="1">
          <mxGeometry x="430" y="200" width="90" height="30" as="geometry" />
        </mxCell>
        <mxCell id="2OX0B22kOYD27q_Sf0gM-16" value="done != 1" style="text;html=1;align=center;verticalAlign=middle;resizable=0;points=[];autosize=1;strokeColor=none;fillColor=none;" vertex="1" parent="1">
          <mxGeometry x="325" y="490" width="70" height="30" as="geometry" />
        </mxCell>
        <mxCell id="2OX0B22kOYD27q_Sf0gM-17" value="valid != 1" style="text;html=1;align=center;verticalAlign=middle;resizable=0;points=[];autosize=1;strokeColor=none;fillColor=none;" vertex="1" parent="1">
          <mxGeometry x="560" y="490" width="70" height="30" as="geometry" />
        </mxCell>
        <mxCell id="2OX0B22kOYD27q_Sf0gM-18" value="2bit&lt;div&gt;4x1&lt;/div&gt;&lt;div&gt;Mux&lt;/div&gt;" style="shadow=0;dashed=0;align=center;html=1;strokeWidth=1;shape=mxgraph.electrical.abstract.mux2;whiteSpace=wrap;selectorPins=2;" vertex="1" parent="1">
          <mxGeometry x="350" y="650" width="130" height="230" as="geometry" />
        </mxCell>
        <mxCell id="2OX0B22kOYD27q_Sf0gM-19" value="state" style="text;html=1;align=center;verticalAlign=middle;resizable=0;points=[];autosize=1;strokeColor=none;fillColor=none;" vertex="1" parent="1">
          <mxGeometry x="390" y="880" width="50" height="30" as="geometry" />
        </mxCell>
        <mxCell id="2OX0B22kOYD27q_Sf0gM-20" value="[0]" style="text;html=1;align=center;verticalAlign=middle;resizable=0;points=[];autosize=1;strokeColor=none;fillColor=none;" vertex="1" parent="1">
          <mxGeometry x="422" y="873" width="40" height="30" as="geometry" />
        </mxCell>
        <mxCell id="2OX0B22kOYD27q_Sf0gM-21" value="[1]" style="text;html=1;align=center;verticalAlign=middle;resizable=0;points=[];autosize=1;strokeColor=none;fillColor=none;" vertex="1" parent="1">
          <mxGeometry x="368" y="873" width="40" height="30" as="geometry" />
        </mxCell>
        <mxCell id="2OX0B22kOYD27q_Sf0gM-23" value="rst_n" style="text;html=1;align=center;verticalAlign=middle;resizable=0;points=[];autosize=1;strokeColor=none;fillColor=none;" vertex="1" parent="1">
          <mxGeometry x="318" y="275" width="50" height="30" as="geometry" />
        </mxCell>
        <mxCell id="2OX0B22kOYD27q_Sf0gM-24" value="2bit&lt;div&gt;2x1&lt;/div&gt;&lt;div&gt;Mux&lt;/div&gt;" style="shadow=0;dashed=0;align=center;html=1;strokeWidth=1;shape=mxgraph.electrical.abstract.mux2;whiteSpace=wrap;selectorPins=1;" vertex="1" parent="1">
          <mxGeometry x="200" y="630" width="80" height="110" as="geometry" />
        </mxCell>
        <mxCell id="2OX0B22kOYD27q_Sf0gM-25" style="edgeStyle=orthogonalEdgeStyle;rounded=0;orthogonalLoop=1;jettySize=auto;html=1;exitX=1;exitY=0.5;exitDx=0;exitDy=-5;exitPerimeter=0;entryX=0;entryY=0.11630434782608695;entryDx=0;entryDy=3;entryPerimeter=0;endArrow=none;endFill=0;" edge="1" parent="1" source="2OX0B22kOYD27q_Sf0gM-24" target="2OX0B22kOYD27q_Sf0gM-18">
          <mxGeometry relative="1" as="geometry" />
        </mxCell>
        <mxCell id="2OX0B22kOYD27q_Sf0gM-26" value="2&#39;b00" style="text;html=1;align=center;verticalAlign=middle;resizable=0;points=[];autosize=1;strokeColor=none;fillColor=none;" vertex="1" parent="1">
          <mxGeometry x="158" y="642" width="50" height="30" as="geometry" />
        </mxCell>
        <mxCell id="2OX0B22kOYD27q_Sf0gM-27" value="request" style="text;html=1;align=center;verticalAlign=middle;resizable=0;points=[];autosize=1;strokeColor=none;fillColor=none;" vertex="1" parent="1">
          <mxGeometry x="210" y="730" width="60" height="30" as="geometry" />
        </mxCell>
        <mxCell id="2OX0B22kOYD27q_Sf0gM-28" value="2&#39;b01" style="text;html=1;align=center;verticalAlign=middle;resizable=0;points=[];autosize=1;strokeColor=none;fillColor=none;" vertex="1" parent="1">
          <mxGeometry x="159" y="689" width="50" height="30" as="geometry" />
        </mxCell>
        <mxCell id="2OX0B22kOYD27q_Sf0gM-29" value="2&#39;b00" style="text;html=1;align=center;verticalAlign=middle;resizable=0;points=[];autosize=1;strokeColor=none;fillColor=none;" vertex="1" parent="1">
          <mxGeometry x="309" y="825" width="50" height="30" as="geometry" />
        </mxCell>
        <mxCell id="2OX0B22kOYD27q_Sf0gM-30" value="2bit&lt;div&gt;2x1&lt;/div&gt;&lt;div&gt;Mux&lt;/div&gt;" style="shadow=0;dashed=0;align=center;html=1;strokeWidth=1;shape=mxgraph.electrical.abstract.mux2;whiteSpace=wrap;selectorPins=1;" vertex="1" parent="1">
          <mxGeometry x="200" y="750" width="80" height="110" as="geometry" />
        </mxCell>
        <mxCell id="2OX0B22kOYD27q_Sf0gM-31" value="2&#39;b01" style="text;html=1;align=center;verticalAlign=middle;resizable=0;points=[];autosize=1;strokeColor=none;fillColor=none;" vertex="1" parent="1">
          <mxGeometry x="158" y="762" width="50" height="30" as="geometry" />
        </mxCell>
        <mxCell id="2OX0B22kOYD27q_Sf0gM-32" value="done" style="text;html=1;align=center;verticalAlign=middle;resizable=0;points=[];autosize=1;strokeColor=none;fillColor=none;" vertex="1" parent="1">
          <mxGeometry x="215" y="850" width="50" height="30" as="geometry" />
        </mxCell>
        <mxCell id="2OX0B22kOYD27q_Sf0gM-33" value="2&#39;b10" style="text;html=1;align=center;verticalAlign=middle;resizable=0;points=[];autosize=1;strokeColor=none;fillColor=none;" vertex="1" parent="1">
          <mxGeometry x="159" y="809" width="50" height="30" as="geometry" />
        </mxCell>
        <mxCell id="2OX0B22kOYD27q_Sf0gM-34" value="2bit&lt;div&gt;2x1&lt;/div&gt;&lt;div&gt;Mux&lt;/div&gt;" style="shadow=0;dashed=0;align=center;html=1;strokeWidth=1;shape=mxgraph.electrical.abstract.mux2;whiteSpace=wrap;selectorPins=1;" vertex="1" parent="1">
          <mxGeometry x="200" y="873" width="80" height="110" as="geometry" />
        </mxCell>
        <mxCell id="2OX0B22kOYD27q_Sf0gM-35" value="2&#39;b10" style="text;html=1;align=center;verticalAlign=middle;resizable=0;points=[];autosize=1;strokeColor=none;fillColor=none;" vertex="1" parent="1">
          <mxGeometry x="158" y="885" width="50" height="30" as="geometry" />
        </mxCell>
        <mxCell id="2OX0B22kOYD27q_Sf0gM-36" value="valid" style="text;html=1;align=center;verticalAlign=middle;resizable=0;points=[];autosize=1;strokeColor=none;fillColor=none;" vertex="1" parent="1">
          <mxGeometry x="214" y="973" width="50" height="30" as="geometry" />
        </mxCell>
        <mxCell id="2OX0B22kOYD27q_Sf0gM-37" value="2&#39;b00" style="text;html=1;align=center;verticalAlign=middle;resizable=0;points=[];autosize=1;strokeColor=none;fillColor=none;" vertex="1" parent="1">
          <mxGeometry x="159" y="932" width="50" height="30" as="geometry" />
        </mxCell>
        <mxCell id="2OX0B22kOYD27q_Sf0gM-38" style="edgeStyle=orthogonalEdgeStyle;rounded=0;orthogonalLoop=1;jettySize=auto;html=1;exitX=1;exitY=0.5;exitDx=0;exitDy=-5;exitPerimeter=0;entryX=0;entryY=0.5815217391304348;entryDx=0;entryDy=3;entryPerimeter=0;endArrow=none;endFill=0;" edge="1" parent="1" source="2OX0B22kOYD27q_Sf0gM-34" target="2OX0B22kOYD27q_Sf0gM-18">
          <mxGeometry relative="1" as="geometry">
            <Array as="points">
              <mxPoint x="290" y="923" />
              <mxPoint x="290" y="787" />
            </Array>
          </mxGeometry>
        </mxCell>
        <mxCell id="2OX0B22kOYD27q_Sf0gM-39" style="edgeStyle=orthogonalEdgeStyle;rounded=0;orthogonalLoop=1;jettySize=auto;html=1;exitX=1;exitY=0.5;exitDx=0;exitDy=-5;exitPerimeter=0;entryX=0;entryY=0.34891304347826085;entryDx=0;entryDy=3;entryPerimeter=0;endArrow=none;endFill=0;" edge="1" parent="1" source="2OX0B22kOYD27q_Sf0gM-30" target="2OX0B22kOYD27q_Sf0gM-18">
          <mxGeometry relative="1" as="geometry">
            <Array as="points">
              <mxPoint x="280" y="733" />
            </Array>
          </mxGeometry>
        </mxCell>
        <mxCell id="2OX0B22kOYD27q_Sf0gM-40" value="2bit&lt;div&gt;2x1&lt;/div&gt;&lt;div&gt;Mux&lt;/div&gt;" style="shadow=0;dashed=0;align=center;html=1;strokeWidth=1;shape=mxgraph.electrical.abstract.mux2;whiteSpace=wrap;" vertex="1" parent="1">
          <mxGeometry x="503" y="679" width="80" height="120" as="geometry" />
        </mxCell>
        <mxCell id="2OX0B22kOYD27q_Sf0gM-42" value="2&#39;b00" style="text;html=1;align=center;verticalAlign=middle;resizable=0;points=[];autosize=1;strokeColor=none;fillColor=none;" vertex="1" parent="1">
          <mxGeometry x="463" y="693" width="50" height="30" as="geometry" />
        </mxCell>
        <mxCell id="2OX0B22kOYD27q_Sf0gM-43" value="rst_n" style="text;html=1;align=center;verticalAlign=middle;resizable=0;points=[];autosize=1;strokeColor=none;fillColor=none;" vertex="1" parent="1">
          <mxGeometry x="518" y="790" width="50" height="30" as="geometry" />
        </mxCell>
        <mxCell id="2OX0B22kOYD27q_Sf0gM-44" value="state" style="text;html=1;align=center;verticalAlign=middle;resizable=0;points=[];autosize=1;strokeColor=none;fillColor=none;" vertex="1" parent="1">
          <mxGeometry x="672" y="719" width="50" height="30" as="geometry" />
        </mxCell>
        <mxCell id="2OX0B22kOYD27q_Sf0gM-45" style="edgeStyle=orthogonalEdgeStyle;rounded=0;orthogonalLoop=1;jettySize=auto;html=1;exitX=1;exitY=0.5;exitDx=0;exitDy=-5;exitPerimeter=0;entryX=0;entryY=0.65;entryDx=0;entryDy=3;entryPerimeter=0;endArrow=none;endFill=0;" edge="1" parent="1" source="2OX0B22kOYD27q_Sf0gM-18" target="2OX0B22kOYD27q_Sf0gM-40">
          <mxGeometry relative="1" as="geometry" />
        </mxCell>
        <mxCell id="2OX0B22kOYD27q_Sf0gM-48" value="" style="group" vertex="1" connectable="0" parent="1">
          <mxGeometry x="188" y="634" width="30" height="30" as="geometry" />
        </mxCell>
        <mxCell id="2OX0B22kOYD27q_Sf0gM-46" value="" style="endArrow=none;html=1;rounded=0;" edge="1" parent="2OX0B22kOYD27q_Sf0gM-48">
          <mxGeometry width="50" height="50" relative="1" as="geometry">
            <mxPoint x="14" y="26" as="sourcePoint" />
            <mxPoint x="20" y="18" as="targetPoint" />
          </mxGeometry>
        </mxCell>
        <mxCell id="2OX0B22kOYD27q_Sf0gM-47" value="&lt;font style=&quot;font-size: 8px;&quot;&gt;2&lt;/font&gt;" style="text;html=1;align=center;verticalAlign=middle;resizable=1;points=[];autosize=1;strokeColor=none;fillColor=none;movable=1;rotatable=1;deletable=1;editable=1;locked=0;connectable=1;" vertex="1" parent="2OX0B22kOYD27q_Sf0gM-48">
          <mxGeometry width="30" height="30" as="geometry" />
        </mxCell>
        <mxCell id="2OX0B22kOYD27q_Sf0gM-49" value="" style="group" vertex="1" connectable="0" parent="1">
          <mxGeometry x="188" y="681" width="30" height="30" as="geometry" />
        </mxCell>
        <mxCell id="2OX0B22kOYD27q_Sf0gM-50" value="" style="endArrow=none;html=1;rounded=0;" edge="1" parent="2OX0B22kOYD27q_Sf0gM-49">
          <mxGeometry width="50" height="50" relative="1" as="geometry">
            <mxPoint x="14" y="26" as="sourcePoint" />
            <mxPoint x="20" y="18" as="targetPoint" />
          </mxGeometry>
        </mxCell>
        <mxCell id="2OX0B22kOYD27q_Sf0gM-51" value="&lt;font style=&quot;font-size: 8px;&quot;&gt;2&lt;/font&gt;" style="text;html=1;align=center;verticalAlign=middle;resizable=1;points=[];autosize=1;strokeColor=none;fillColor=none;movable=1;rotatable=1;deletable=1;editable=1;locked=0;connectable=1;" vertex="1" parent="2OX0B22kOYD27q_Sf0gM-49">
          <mxGeometry width="30" height="30" as="geometry" />
        </mxCell>
        <mxCell id="2OX0B22kOYD27q_Sf0gM-52" value="" style="group" vertex="1" connectable="0" parent="1">
          <mxGeometry x="188" y="755" width="30" height="30" as="geometry" />
        </mxCell>
        <mxCell id="2OX0B22kOYD27q_Sf0gM-53" value="" style="endArrow=none;html=1;rounded=0;" edge="1" parent="2OX0B22kOYD27q_Sf0gM-52">
          <mxGeometry width="50" height="50" relative="1" as="geometry">
            <mxPoint x="14" y="26" as="sourcePoint" />
            <mxPoint x="20" y="18" as="targetPoint" />
          </mxGeometry>
        </mxCell>
        <mxCell id="2OX0B22kOYD27q_Sf0gM-54" value="&lt;font style=&quot;font-size: 8px;&quot;&gt;2&lt;/font&gt;" style="text;html=1;align=center;verticalAlign=middle;resizable=1;points=[];autosize=1;strokeColor=none;fillColor=none;movable=1;rotatable=1;deletable=1;editable=1;locked=0;connectable=1;" vertex="1" parent="2OX0B22kOYD27q_Sf0gM-52">
          <mxGeometry width="30" height="30" as="geometry" />
        </mxCell>
        <mxCell id="2OX0B22kOYD27q_Sf0gM-55" value="" style="group" vertex="1" connectable="0" parent="1">
          <mxGeometry x="188" y="802" width="40" height="40" as="geometry" />
        </mxCell>
        <mxCell id="2OX0B22kOYD27q_Sf0gM-56" value="" style="endArrow=none;html=1;rounded=0;" edge="1" parent="2OX0B22kOYD27q_Sf0gM-55">
          <mxGeometry width="50" height="50" relative="1" as="geometry">
            <mxPoint x="14" y="26" as="sourcePoint" />
            <mxPoint x="20" y="18" as="targetPoint" />
          </mxGeometry>
        </mxCell>
        <mxCell id="2OX0B22kOYD27q_Sf0gM-57" value="&lt;font style=&quot;font-size: 8px;&quot;&gt;2&lt;/font&gt;" style="text;html=1;align=center;verticalAlign=middle;resizable=1;points=[];autosize=1;strokeColor=none;fillColor=none;movable=1;rotatable=1;deletable=1;editable=1;locked=0;connectable=1;" vertex="1" parent="2OX0B22kOYD27q_Sf0gM-55">
          <mxGeometry width="30" height="30" as="geometry" />
        </mxCell>
        <mxCell id="2OX0B22kOYD27q_Sf0gM-58" value="" style="group" vertex="1" connectable="0" parent="1">
          <mxGeometry x="188" y="878" width="30" height="30" as="geometry" />
        </mxCell>
        <mxCell id="2OX0B22kOYD27q_Sf0gM-59" value="" style="endArrow=none;html=1;rounded=0;" edge="1" parent="2OX0B22kOYD27q_Sf0gM-58">
          <mxGeometry width="50" height="50" relative="1" as="geometry">
            <mxPoint x="14" y="26" as="sourcePoint" />
            <mxPoint x="20" y="18" as="targetPoint" />
          </mxGeometry>
        </mxCell>
        <mxCell id="2OX0B22kOYD27q_Sf0gM-60" value="&lt;font style=&quot;font-size: 8px;&quot;&gt;2&lt;/font&gt;" style="text;html=1;align=center;verticalAlign=middle;resizable=1;points=[];autosize=1;strokeColor=none;fillColor=none;movable=1;rotatable=1;deletable=1;editable=1;locked=0;connectable=1;" vertex="1" parent="2OX0B22kOYD27q_Sf0gM-58">
          <mxGeometry width="30" height="30" as="geometry" />
        </mxCell>
        <mxCell id="2OX0B22kOYD27q_Sf0gM-61" value="" style="group" vertex="1" connectable="0" parent="1">
          <mxGeometry x="188" y="924" width="30" height="30" as="geometry" />
        </mxCell>
        <mxCell id="2OX0B22kOYD27q_Sf0gM-62" value="" style="endArrow=none;html=1;rounded=0;" edge="1" parent="2OX0B22kOYD27q_Sf0gM-61">
          <mxGeometry width="50" height="50" relative="1" as="geometry">
            <mxPoint x="14" y="26" as="sourcePoint" />
            <mxPoint x="20" y="18" as="targetPoint" />
          </mxGeometry>
        </mxCell>
        <mxCell id="2OX0B22kOYD27q_Sf0gM-63" value="&lt;font style=&quot;font-size: 8px;&quot;&gt;2&lt;/font&gt;" style="text;html=1;align=center;verticalAlign=middle;resizable=1;points=[];autosize=1;strokeColor=none;fillColor=none;movable=1;rotatable=1;deletable=1;editable=1;locked=0;connectable=1;" vertex="1" parent="2OX0B22kOYD27q_Sf0gM-61">
          <mxGeometry width="30" height="30" as="geometry" />
        </mxCell>
        <mxCell id="2OX0B22kOYD27q_Sf0gM-64" value="" style="group" vertex="1" connectable="0" parent="1">
          <mxGeometry x="338" y="658" width="30" height="30" as="geometry" />
        </mxCell>
        <mxCell id="2OX0B22kOYD27q_Sf0gM-65" value="" style="endArrow=none;html=1;rounded=0;" edge="1" parent="2OX0B22kOYD27q_Sf0gM-64">
          <mxGeometry width="50" height="50" relative="1" as="geometry">
            <mxPoint x="14" y="26" as="sourcePoint" />
            <mxPoint x="20" y="18" as="targetPoint" />
          </mxGeometry>
        </mxCell>
        <mxCell id="2OX0B22kOYD27q_Sf0gM-66" value="&lt;font style=&quot;font-size: 8px;&quot;&gt;2&lt;/font&gt;" style="text;html=1;align=center;verticalAlign=middle;resizable=1;points=[];autosize=1;strokeColor=none;fillColor=none;movable=1;rotatable=1;deletable=1;editable=1;locked=0;connectable=1;" vertex="1" parent="2OX0B22kOYD27q_Sf0gM-64">
          <mxGeometry width="30" height="30" as="geometry" />
        </mxCell>
        <mxCell id="2OX0B22kOYD27q_Sf0gM-67" value="" style="group" vertex="1" connectable="0" parent="1">
          <mxGeometry x="338" y="711" width="30" height="30" as="geometry" />
        </mxCell>
        <mxCell id="2OX0B22kOYD27q_Sf0gM-68" value="" style="endArrow=none;html=1;rounded=0;" edge="1" parent="2OX0B22kOYD27q_Sf0gM-67">
          <mxGeometry width="50" height="50" relative="1" as="geometry">
            <mxPoint x="14" y="26" as="sourcePoint" />
            <mxPoint x="20" y="18" as="targetPoint" />
          </mxGeometry>
        </mxCell>
        <mxCell id="2OX0B22kOYD27q_Sf0gM-69" value="&lt;font style=&quot;font-size: 8px;&quot;&gt;2&lt;/font&gt;" style="text;html=1;align=center;verticalAlign=middle;resizable=1;points=[];autosize=1;strokeColor=none;fillColor=none;movable=1;rotatable=1;deletable=1;editable=1;locked=0;connectable=1;" vertex="1" parent="2OX0B22kOYD27q_Sf0gM-67">
          <mxGeometry width="30" height="30" as="geometry" />
        </mxCell>
        <mxCell id="2OX0B22kOYD27q_Sf0gM-70" value="" style="group" vertex="1" connectable="0" parent="1">
          <mxGeometry x="338" y="765" width="30" height="30" as="geometry" />
        </mxCell>
        <mxCell id="2OX0B22kOYD27q_Sf0gM-71" value="" style="endArrow=none;html=1;rounded=0;" edge="1" parent="2OX0B22kOYD27q_Sf0gM-70">
          <mxGeometry width="50" height="50" relative="1" as="geometry">
            <mxPoint x="14" y="26" as="sourcePoint" />
            <mxPoint x="20" y="18" as="targetPoint" />
          </mxGeometry>
        </mxCell>
        <mxCell id="2OX0B22kOYD27q_Sf0gM-72" value="&lt;font style=&quot;font-size: 8px;&quot;&gt;2&lt;/font&gt;" style="text;html=1;align=center;verticalAlign=middle;resizable=1;points=[];autosize=1;strokeColor=none;fillColor=none;movable=1;rotatable=1;deletable=1;editable=1;locked=0;connectable=1;" vertex="1" parent="2OX0B22kOYD27q_Sf0gM-70">
          <mxGeometry width="30" height="30" as="geometry" />
        </mxCell>
        <mxCell id="2OX0B22kOYD27q_Sf0gM-73" value="" style="group" vertex="1" connectable="0" parent="1">
          <mxGeometry x="338" y="818" width="30" height="30" as="geometry" />
        </mxCell>
        <mxCell id="2OX0B22kOYD27q_Sf0gM-74" value="" style="endArrow=none;html=1;rounded=0;" edge="1" parent="2OX0B22kOYD27q_Sf0gM-73">
          <mxGeometry width="50" height="50" relative="1" as="geometry">
            <mxPoint x="14" y="26" as="sourcePoint" />
            <mxPoint x="20" y="18" as="targetPoint" />
          </mxGeometry>
        </mxCell>
        <mxCell id="2OX0B22kOYD27q_Sf0gM-75" value="&lt;font style=&quot;font-size: 8px;&quot;&gt;2&lt;/font&gt;" style="text;html=1;align=center;verticalAlign=middle;resizable=1;points=[];autosize=1;strokeColor=none;fillColor=none;movable=1;rotatable=1;deletable=1;editable=1;locked=0;connectable=1;" vertex="1" parent="2OX0B22kOYD27q_Sf0gM-73">
          <mxGeometry width="30" height="30" as="geometry" />
        </mxCell>
        <mxCell id="2OX0B22kOYD27q_Sf0gM-76" value="" style="group" vertex="1" connectable="0" parent="1">
          <mxGeometry x="491" y="738" width="30" height="30" as="geometry" />
        </mxCell>
        <mxCell id="2OX0B22kOYD27q_Sf0gM-77" value="" style="endArrow=none;html=1;rounded=0;" edge="1" parent="2OX0B22kOYD27q_Sf0gM-76">
          <mxGeometry width="50" height="50" relative="1" as="geometry">
            <mxPoint x="14" y="26" as="sourcePoint" />
            <mxPoint x="20" y="18" as="targetPoint" />
          </mxGeometry>
        </mxCell>
        <mxCell id="2OX0B22kOYD27q_Sf0gM-78" value="&lt;font style=&quot;font-size: 8px;&quot;&gt;2&lt;/font&gt;" style="text;html=1;align=center;verticalAlign=middle;resizable=1;points=[];autosize=1;strokeColor=none;fillColor=none;movable=1;rotatable=1;deletable=1;editable=1;locked=0;connectable=1;" vertex="1" parent="2OX0B22kOYD27q_Sf0gM-76">
          <mxGeometry width="30" height="30" as="geometry" />
        </mxCell>
        <mxCell id="2OX0B22kOYD27q_Sf0gM-79" value="" style="group" vertex="1" connectable="0" parent="1">
          <mxGeometry x="491" y="686" width="30" height="30" as="geometry" />
        </mxCell>
        <mxCell id="2OX0B22kOYD27q_Sf0gM-80" value="" style="endArrow=none;html=1;rounded=0;" edge="1" parent="2OX0B22kOYD27q_Sf0gM-79">
          <mxGeometry width="50" height="50" relative="1" as="geometry">
            <mxPoint x="14" y="26" as="sourcePoint" />
            <mxPoint x="20" y="18" as="targetPoint" />
          </mxGeometry>
        </mxCell>
        <mxCell id="2OX0B22kOYD27q_Sf0gM-81" value="&lt;font style=&quot;font-size: 8px;&quot;&gt;2&lt;/font&gt;" style="text;html=1;align=center;verticalAlign=middle;resizable=1;points=[];autosize=1;strokeColor=none;fillColor=none;movable=1;rotatable=1;deletable=1;editable=1;locked=0;connectable=1;" vertex="1" parent="2OX0B22kOYD27q_Sf0gM-79">
          <mxGeometry width="30" height="30" as="geometry" />
        </mxCell>
        <mxCell id="2OX0B22kOYD27q_Sf0gM-82" value="" style="group" vertex="1" connectable="0" parent="1">
          <mxGeometry x="580" y="712" width="30" height="30" as="geometry" />
        </mxCell>
        <mxCell id="2OX0B22kOYD27q_Sf0gM-83" value="" style="endArrow=none;html=1;rounded=0;" edge="1" parent="2OX0B22kOYD27q_Sf0gM-82">
          <mxGeometry width="50" height="50" relative="1" as="geometry">
            <mxPoint x="14" y="26" as="sourcePoint" />
            <mxPoint x="20" y="18" as="targetPoint" />
          </mxGeometry>
        </mxCell>
        <mxCell id="2OX0B22kOYD27q_Sf0gM-84" value="&lt;font style=&quot;font-size: 8px;&quot;&gt;2&lt;/font&gt;" style="text;html=1;align=center;verticalAlign=middle;resizable=1;points=[];autosize=1;strokeColor=none;fillColor=none;movable=1;rotatable=1;deletable=1;editable=1;locked=0;connectable=1;" vertex="1" parent="2OX0B22kOYD27q_Sf0gM-82">
          <mxGeometry width="30" height="30" as="geometry" />
        </mxCell>
        <mxCell id="2OX0B22kOYD27q_Sf0gM-85" value="1bit&lt;div&gt;2x1&lt;/div&gt;&lt;div&gt;Mux&lt;/div&gt;" style="shadow=0;dashed=0;align=center;html=1;strokeWidth=1;shape=mxgraph.electrical.abstract.mux2;whiteSpace=wrap;selectorPins=1;" vertex="1" parent="1">
          <mxGeometry x="199" y="1010" width="80" height="110" as="geometry" />
        </mxCell>
        <mxCell id="2OX0B22kOYD27q_Sf0gM-86" value="request" style="text;html=1;align=center;verticalAlign=middle;resizable=0;points=[];autosize=1;strokeColor=none;fillColor=none;" vertex="1" parent="1">
          <mxGeometry x="209" y="1110" width="60" height="30" as="geometry" />
        </mxCell>
        <mxCell id="2OX0B22kOYD27q_Sf0gM-88" value="" style="verticalLabelPosition=bottom;shadow=0;dashed=0;align=center;html=1;verticalAlign=top;shape=stencil(rVXBjoMgEP0ajruxENteN269N9kfQEsrKQJBatu/XxCbFC3K1k30wBuc92aYhwBlTYUlATDBjSSlBugbQNhiRXHBDAxNpHLgNnFLjmviEPMmP/fu65xR+ZEzId2eRitxJld60P3HlFdEUe2iV4etki4j2oHky6D2QVkpODc6qOCNF3mKm+SYcj2UYjNLQ1ITTZRDe8U3b3XvV58wdQCA+V+odm9Qbd6j2kdQrSKrQplBQt1FWYHL80mJCz+8FKjsbIxGoT/Ita9oWP2EngAryo5CkQk5R8qYm7GJpkpsp28UeIRr0ZLQiYVE+xkY5SRYdlyKKRHr5SLiUvgitstb0Tt7US8GlaSTDnotA/1/P2d8bPDA1JmLdm5eNblZj2FGT9zRlYRb1z+uVO+qa5/2FUJrUfsmTP0TmBEeyb2P4t7EcXftGhm9Q91PqQN+AQ==);" vertex="1" parent="1">
          <mxGeometry x="583" y="714" width="100" height="80" as="geometry" />
        </mxCell>
        <mxCell id="2OX0B22kOYD27q_Sf0gM-89" value="clk" style="text;html=1;align=center;verticalAlign=middle;resizable=0;points=[];autosize=1;strokeColor=none;fillColor=none;fontFamily=Helvetica;fontSize=12;fontColor=default;" vertex="1" parent="1">
          <mxGeometry x="565" y="765" width="40" height="30" as="geometry" />
        </mxCell>
        <mxCell id="2OX0B22kOYD27q_Sf0gM-90" value="1bit&lt;div&gt;4x1&lt;/div&gt;&lt;div&gt;Mux&lt;/div&gt;" style="shadow=0;dashed=0;align=center;html=1;strokeWidth=1;shape=mxgraph.electrical.abstract.mux2;whiteSpace=wrap;selectorPins=2;" vertex="1" parent="1">
          <mxGeometry x="351" y="954" width="130" height="230" as="geometry" />
        </mxCell>
        <mxCell id="2OX0B22kOYD27q_Sf0gM-91" value="state" style="text;html=1;align=center;verticalAlign=middle;resizable=0;points=[];autosize=1;strokeColor=none;fillColor=none;" vertex="1" parent="1">
          <mxGeometry x="391" y="1184" width="50" height="30" as="geometry" />
        </mxCell>
        <mxCell id="2OX0B22kOYD27q_Sf0gM-92" value="[0]" style="text;html=1;align=center;verticalAlign=middle;resizable=0;points=[];autosize=1;strokeColor=none;fillColor=none;" vertex="1" parent="1">
          <mxGeometry x="423" y="1177" width="40" height="30" as="geometry" />
        </mxCell>
        <mxCell id="2OX0B22kOYD27q_Sf0gM-93" value="[1]" style="text;html=1;align=center;verticalAlign=middle;resizable=0;points=[];autosize=1;strokeColor=none;fillColor=none;" vertex="1" parent="1">
          <mxGeometry x="369" y="1177" width="40" height="30" as="geometry" />
        </mxCell>
        <mxCell id="2OX0B22kOYD27q_Sf0gM-95" value="1&#39;b0" style="text;html=1;align=center;verticalAlign=middle;resizable=0;points=[];autosize=1;strokeColor=none;fillColor=none;" vertex="1" parent="1">
          <mxGeometry x="310" y="1129" width="50" height="30" as="geometry" />
        </mxCell>
        <mxCell id="2OX0B22kOYD27q_Sf0gM-113" value="1&#39;b1" style="text;html=1;align=center;verticalAlign=middle;resizable=0;points=[];autosize=1;strokeColor=none;fillColor=none;fontFamily=Helvetica;fontSize=12;fontColor=default;" vertex="1" parent="1">
          <mxGeometry x="161" y="1069" width="50" height="30" as="geometry" />
        </mxCell>
        <mxCell id="2OX0B22kOYD27q_Sf0gM-114" value="1&#39;b0" style="text;html=1;align=center;verticalAlign=middle;resizable=0;points=[];autosize=1;strokeColor=none;fillColor=none;fontFamily=Helvetica;fontSize=12;fontColor=default;" vertex="1" parent="1">
          <mxGeometry x="161" y="1022" width="50" height="30" as="geometry" />
        </mxCell>
        <mxCell id="2OX0B22kOYD27q_Sf0gM-115" value="1&#39;b0" style="text;html=1;align=center;verticalAlign=middle;resizable=0;points=[];autosize=1;strokeColor=none;fillColor=none;" vertex="1" parent="1">
          <mxGeometry x="311" y="1076" width="50" height="30" as="geometry" />
        </mxCell>
        <mxCell id="2OX0B22kOYD27q_Sf0gM-116" value="1bit&lt;div&gt;2x1&lt;/div&gt;&lt;div&gt;Mux&lt;/div&gt;" style="shadow=0;dashed=0;align=center;html=1;strokeWidth=1;shape=mxgraph.electrical.abstract.mux2;whiteSpace=wrap;selectorPins=1;" vertex="1" parent="1">
          <mxGeometry x="199" y="1134" width="80" height="110" as="geometry" />
        </mxCell>
        <mxCell id="2OX0B22kOYD27q_Sf0gM-117" value="done" style="text;html=1;align=center;verticalAlign=middle;resizable=0;points=[];autosize=1;strokeColor=none;fillColor=none;" vertex="1" parent="1">
          <mxGeometry x="214" y="1234" width="50" height="30" as="geometry" />
        </mxCell>
        <mxCell id="2OX0B22kOYD27q_Sf0gM-118" value="1&#39;b0" style="text;html=1;align=center;verticalAlign=middle;resizable=0;points=[];autosize=1;strokeColor=none;fillColor=none;fontFamily=Helvetica;fontSize=12;fontColor=default;" vertex="1" parent="1">
          <mxGeometry x="161" y="1193" width="50" height="30" as="geometry" />
        </mxCell>
        <mxCell id="2OX0B22kOYD27q_Sf0gM-119" value="1&#39;b1" style="text;html=1;align=center;verticalAlign=middle;resizable=0;points=[];autosize=1;strokeColor=none;fillColor=none;fontFamily=Helvetica;fontSize=12;fontColor=default;" vertex="1" parent="1">
          <mxGeometry x="161" y="1146" width="50" height="30" as="geometry" />
        </mxCell>
        <mxCell id="2OX0B22kOYD27q_Sf0gM-120" style="edgeStyle=orthogonalEdgeStyle;rounded=0;orthogonalLoop=1;jettySize=auto;html=1;exitX=1;exitY=0.5;exitDx=0;exitDy=-5;exitPerimeter=0;entryX=0;entryY=0.11630434782608695;entryDx=0;entryDy=3;entryPerimeter=0;fontFamily=Helvetica;fontSize=12;fontColor=default;" edge="1" parent="1" source="2OX0B22kOYD27q_Sf0gM-85" target="2OX0B22kOYD27q_Sf0gM-90">
          <mxGeometry relative="1" as="geometry">
            <Array as="points">
              <mxPoint x="280" y="1060" />
              <mxPoint x="280" y="984" />
            </Array>
          </mxGeometry>
        </mxCell>
        <mxCell id="2OX0B22kOYD27q_Sf0gM-121" style="edgeStyle=orthogonalEdgeStyle;rounded=0;orthogonalLoop=1;jettySize=auto;html=1;exitX=1;exitY=0.5;exitDx=0;exitDy=-5;exitPerimeter=0;entryX=0;entryY=0.34891304347826085;entryDx=0;entryDy=3;entryPerimeter=0;fontFamily=Helvetica;fontSize=12;fontColor=default;" edge="1" parent="1" source="2OX0B22kOYD27q_Sf0gM-116" target="2OX0B22kOYD27q_Sf0gM-90">
          <mxGeometry relative="1" as="geometry">
            <Array as="points">
              <mxPoint x="290" y="1184" />
              <mxPoint x="290" y="1037" />
            </Array>
          </mxGeometry>
        </mxCell>
        <mxCell id="2OX0B22kOYD27q_Sf0gM-122" value="1bit&lt;div&gt;2x1&lt;/div&gt;&lt;div&gt;Mux&lt;/div&gt;" style="shadow=0;dashed=0;align=center;html=1;strokeWidth=1;shape=mxgraph.electrical.abstract.mux2;whiteSpace=wrap;" vertex="1" parent="1">
          <mxGeometry x="503.5" y="983" width="80" height="120" as="geometry" />
        </mxCell>
        <mxCell id="2OX0B22kOYD27q_Sf0gM-123" value="1&#39;b0" style="text;html=1;align=center;verticalAlign=middle;resizable=0;points=[];autosize=1;strokeColor=none;fillColor=none;" vertex="1" parent="1">
          <mxGeometry x="463.5" y="997" width="50" height="30" as="geometry" />
        </mxCell>
        <mxCell id="2OX0B22kOYD27q_Sf0gM-124" value="rst_n" style="text;html=1;align=center;verticalAlign=middle;resizable=0;points=[];autosize=1;strokeColor=none;fillColor=none;" vertex="1" parent="1">
          <mxGeometry x="518.5" y="1094" width="50" height="30" as="geometry" />
        </mxCell>
        <mxCell id="2OX0B22kOYD27q_Sf0gM-125" value="notice" style="text;html=1;align=center;verticalAlign=middle;resizable=0;points=[];autosize=1;strokeColor=none;fillColor=none;" vertex="1" parent="1">
          <mxGeometry x="669.5" y="1023" width="60" height="30" as="geometry" />
        </mxCell>
        <mxCell id="2OX0B22kOYD27q_Sf0gM-126" style="edgeStyle=orthogonalEdgeStyle;rounded=0;orthogonalLoop=1;jettySize=auto;html=1;exitX=1;exitY=0.5;exitDx=0;exitDy=-5;exitPerimeter=0;entryX=0;entryY=0.65;entryDx=0;entryDy=3;entryPerimeter=0;endArrow=none;endFill=0;" edge="1" parent="1" target="2OX0B22kOYD27q_Sf0gM-122">
          <mxGeometry relative="1" as="geometry">
            <mxPoint x="480.5" y="1064" as="sourcePoint" />
          </mxGeometry>
        </mxCell>
        <mxCell id="2OX0B22kOYD27q_Sf0gM-133" value="" style="group" vertex="1" connectable="0" parent="1">
          <mxGeometry x="580.5" y="1016" width="30" height="30" as="geometry" />
        </mxCell>
        <mxCell id="2OX0B22kOYD27q_Sf0gM-134" value="" style="endArrow=none;html=1;rounded=0;" edge="1" parent="2OX0B22kOYD27q_Sf0gM-133">
          <mxGeometry width="50" height="50" relative="1" as="geometry">
            <mxPoint x="14" y="26" as="sourcePoint" />
            <mxPoint x="20" y="18" as="targetPoint" />
          </mxGeometry>
        </mxCell>
        <mxCell id="2OX0B22kOYD27q_Sf0gM-135" value="&lt;font style=&quot;font-size: 8px;&quot;&gt;2&lt;/font&gt;" style="text;html=1;align=center;verticalAlign=middle;resizable=1;points=[];autosize=1;strokeColor=none;fillColor=none;movable=1;rotatable=1;deletable=1;editable=1;locked=0;connectable=1;" vertex="1" parent="2OX0B22kOYD27q_Sf0gM-133">
          <mxGeometry width="30" height="30" as="geometry" />
        </mxCell>
        <mxCell id="2OX0B22kOYD27q_Sf0gM-136" value="" style="verticalLabelPosition=bottom;shadow=0;dashed=0;align=center;html=1;verticalAlign=top;shape=stencil(rVXBjoMgEP0ajruxENteN269N9kfQEsrKQJBatu/XxCbFC3K1k30wBuc92aYhwBlTYUlATDBjSSlBugbQNhiRXHBDAxNpHLgNnFLjmviEPMmP/fu65xR+ZEzId2eRitxJld60P3HlFdEUe2iV4etki4j2oHky6D2QVkpODc6qOCNF3mKm+SYcj2UYjNLQ1ITTZRDe8U3b3XvV58wdQCA+V+odm9Qbd6j2kdQrSKrQplBQt1FWYHL80mJCz+8FKjsbIxGoT/Ita9oWP2EngAryo5CkQk5R8qYm7GJpkpsp28UeIRr0ZLQiYVE+xkY5SRYdlyKKRHr5SLiUvgitstb0Tt7US8GlaSTDnotA/1/P2d8bPDA1JmLdm5eNblZj2FGT9zRlYRb1z+uVO+qa5/2FUJrUfsmTP0TmBEeyb2P4t7EcXftGhm9Q91PqQN+AQ==);" vertex="1" parent="1">
          <mxGeometry x="583.5" y="1018" width="100" height="80" as="geometry" />
        </mxCell>
        <mxCell id="2OX0B22kOYD27q_Sf0gM-137" value="clk" style="text;html=1;align=center;verticalAlign=middle;resizable=0;points=[];autosize=1;strokeColor=none;fillColor=none;fontFamily=Helvetica;fontSize=12;fontColor=default;" vertex="1" parent="1">
          <mxGeometry x="565.5" y="1069" width="40" height="30" as="geometry" />
        </mxCell>
        <mxCell id="2OX0B22kOYD27q_Sf0gM-138" value="2bit&lt;div&gt;DFF&lt;/div&gt;" style="text;html=1;align=center;verticalAlign=middle;resizable=0;points=[];autosize=1;strokeColor=none;fillColor=none;fontFamily=Helvetica;fontSize=12;fontColor=default;" vertex="1" parent="1">
          <mxGeometry x="608" y="734" width="50" height="40" as="geometry" />
        </mxCell>
        <mxCell id="2OX0B22kOYD27q_Sf0gM-140" value="1bit&lt;div&gt;DFF&lt;/div&gt;" style="text;html=1;align=center;verticalAlign=middle;resizable=0;points=[];autosize=1;strokeColor=none;fillColor=none;fontFamily=Helvetica;fontSize=12;fontColor=default;" vertex="1" parent="1">
          <mxGeometry x="608.5" y="1038" width="50" height="40" as="geometry" />
        </mxCell>
        <mxCell id="2OX0B22kOYD27q_Sf0gM-144" value="1bit&lt;div&gt;4x1&lt;/div&gt;&lt;div&gt;Mux&lt;/div&gt;" style="shadow=0;dashed=0;align=center;html=1;strokeWidth=1;shape=mxgraph.electrical.abstract.mux2;whiteSpace=wrap;selectorPins=2;" vertex="1" parent="1">
          <mxGeometry x="350" y="1245" width="130" height="230" as="geometry" />
        </mxCell>
        <mxCell id="2OX0B22kOYD27q_Sf0gM-145" value="state" style="text;html=1;align=center;verticalAlign=middle;resizable=0;points=[];autosize=1;strokeColor=none;fillColor=none;" vertex="1" parent="1">
          <mxGeometry x="390" y="1475" width="50" height="30" as="geometry" />
        </mxCell>
        <mxCell id="2OX0B22kOYD27q_Sf0gM-146" value="[0]" style="text;html=1;align=center;verticalAlign=middle;resizable=0;points=[];autosize=1;strokeColor=none;fillColor=none;" vertex="1" parent="1">
          <mxGeometry x="422" y="1468" width="40" height="30" as="geometry" />
        </mxCell>
        <mxCell id="2OX0B22kOYD27q_Sf0gM-147" value="[1]" style="text;html=1;align=center;verticalAlign=middle;resizable=0;points=[];autosize=1;strokeColor=none;fillColor=none;" vertex="1" parent="1">
          <mxGeometry x="368" y="1468" width="40" height="30" as="geometry" />
        </mxCell>
        <mxCell id="2OX0B22kOYD27q_Sf0gM-148" value="1&#39;b0" style="text;html=1;align=center;verticalAlign=middle;resizable=0;points=[];autosize=1;strokeColor=none;fillColor=none;" vertex="1" parent="1">
          <mxGeometry x="311" y="1420" width="50" height="30" as="geometry" />
        </mxCell>
        <mxCell id="2OX0B22kOYD27q_Sf0gM-152" value="2bit&lt;div&gt;2x1&lt;/div&gt;&lt;div&gt;Mux&lt;/div&gt;" style="shadow=0;dashed=0;align=center;html=1;strokeWidth=1;shape=mxgraph.electrical.abstract.mux2;whiteSpace=wrap;selectorPins=1;" vertex="1" parent="1">
          <mxGeometry x="200" y="1332" width="80" height="110" as="geometry" />
        </mxCell>
        <mxCell id="2OX0B22kOYD27q_Sf0gM-153" value="valid" style="text;html=1;align=center;verticalAlign=middle;resizable=0;points=[];autosize=1;strokeColor=none;fillColor=none;" vertex="1" parent="1">
          <mxGeometry x="215" y="1432.2" width="50" height="30" as="geometry" />
        </mxCell>
        <mxCell id="2OX0B22kOYD27q_Sf0gM-154" value="1&#39;b1" style="text;html=1;align=center;verticalAlign=middle;resizable=0;points=[];autosize=1;strokeColor=none;fillColor=none;fontFamily=Helvetica;fontSize=12;fontColor=default;" vertex="1" parent="1">
          <mxGeometry x="162" y="1391.2" width="50" height="30" as="geometry" />
        </mxCell>
        <mxCell id="2OX0B22kOYD27q_Sf0gM-155" value="1&#39;b0" style="text;html=1;align=center;verticalAlign=middle;resizable=0;points=[];autosize=1;strokeColor=none;fillColor=none;fontFamily=Helvetica;fontSize=12;fontColor=default;" vertex="1" parent="1">
          <mxGeometry x="162" y="1344.2" width="50" height="30" as="geometry" />
        </mxCell>
        <mxCell id="2OX0B22kOYD27q_Sf0gM-158" value="1bit&lt;div&gt;2x1&lt;/div&gt;&lt;div&gt;Mux&lt;/div&gt;" style="shadow=0;dashed=0;align=center;html=1;strokeWidth=1;shape=mxgraph.electrical.abstract.mux2;whiteSpace=wrap;" vertex="1" parent="1">
          <mxGeometry x="502.5" y="1274" width="80" height="120" as="geometry" />
        </mxCell>
        <mxCell id="2OX0B22kOYD27q_Sf0gM-159" value="1&#39;b0" style="text;html=1;align=center;verticalAlign=middle;resizable=0;points=[];autosize=1;strokeColor=none;fillColor=none;" vertex="1" parent="1">
          <mxGeometry x="462.5" y="1288" width="50" height="30" as="geometry" />
        </mxCell>
        <mxCell id="2OX0B22kOYD27q_Sf0gM-160" value="rst_n" style="text;html=1;align=center;verticalAlign=middle;resizable=0;points=[];autosize=1;strokeColor=none;fillColor=none;" vertex="1" parent="1">
          <mxGeometry x="517.5" y="1385" width="50" height="30" as="geometry" />
        </mxCell>
        <mxCell id="2OX0B22kOYD27q_Sf0gM-161" value="ack" style="text;html=1;align=center;verticalAlign=middle;resizable=0;points=[];autosize=1;strokeColor=none;fillColor=none;" vertex="1" parent="1">
          <mxGeometry x="677" y="1314.2" width="40" height="30" as="geometry" />
        </mxCell>
        <mxCell id="2OX0B22kOYD27q_Sf0gM-162" style="edgeStyle=orthogonalEdgeStyle;rounded=0;orthogonalLoop=1;jettySize=auto;html=1;exitX=1;exitY=0.5;exitDx=0;exitDy=-5;exitPerimeter=0;entryX=0;entryY=0.65;entryDx=0;entryDy=3;entryPerimeter=0;endArrow=none;endFill=0;" edge="1" parent="1" target="2OX0B22kOYD27q_Sf0gM-158">
          <mxGeometry relative="1" as="geometry">
            <mxPoint x="479.5" y="1355" as="sourcePoint" />
          </mxGeometry>
        </mxCell>
        <mxCell id="2OX0B22kOYD27q_Sf0gM-166" value="" style="verticalLabelPosition=bottom;shadow=0;dashed=0;align=center;html=1;verticalAlign=top;shape=stencil(rVXBjoMgEP0ajruxENteN269N9kfQEsrKQJBatu/XxCbFC3K1k30wBuc92aYhwBlTYUlATDBjSSlBugbQNhiRXHBDAxNpHLgNnFLjmviEPMmP/fu65xR+ZEzId2eRitxJld60P3HlFdEUe2iV4etki4j2oHky6D2QVkpODc6qOCNF3mKm+SYcj2UYjNLQ1ITTZRDe8U3b3XvV58wdQCA+V+odm9Qbd6j2kdQrSKrQplBQt1FWYHL80mJCz+8FKjsbIxGoT/Ita9oWP2EngAryo5CkQk5R8qYm7GJpkpsp28UeIRr0ZLQiYVE+xkY5SRYdlyKKRHr5SLiUvgitstb0Tt7US8GlaSTDnotA/1/P2d8bPDA1JmLdm5eNblZj2FGT9zRlYRb1z+uVO+qa5/2FUJrUfsmTP0TmBEeyb2P4t7EcXftGhm9Q91PqQN+AQ==);" vertex="1" parent="1">
          <mxGeometry x="582.5" y="1309" width="100" height="80" as="geometry" />
        </mxCell>
        <mxCell id="2OX0B22kOYD27q_Sf0gM-167" value="clk" style="text;html=1;align=center;verticalAlign=middle;resizable=0;points=[];autosize=1;strokeColor=none;fillColor=none;fontFamily=Helvetica;fontSize=12;fontColor=default;" vertex="1" parent="1">
          <mxGeometry x="564.5" y="1362" width="40" height="30" as="geometry" />
        </mxCell>
        <mxCell id="2OX0B22kOYD27q_Sf0gM-168" value="1bit&lt;div&gt;DFF&lt;/div&gt;" style="text;html=1;align=center;verticalAlign=middle;resizable=0;points=[];autosize=1;strokeColor=none;fillColor=none;fontFamily=Helvetica;fontSize=12;fontColor=default;" vertex="1" parent="1">
          <mxGeometry x="607.5" y="1329" width="50" height="40" as="geometry" />
        </mxCell>
        <mxCell id="2OX0B22kOYD27q_Sf0gM-169" style="edgeStyle=orthogonalEdgeStyle;rounded=0;orthogonalLoop=1;jettySize=auto;html=1;exitX=1;exitY=0.5;exitDx=0;exitDy=-5;exitPerimeter=0;entryX=0;entryY=0.5815217391304348;entryDx=0;entryDy=3;entryPerimeter=0;fontFamily=Helvetica;fontSize=12;fontColor=default;endArrow=none;endFill=0;" edge="1" parent="1" source="2OX0B22kOYD27q_Sf0gM-152">
          <mxGeometry relative="1" as="geometry">
            <mxPoint x="350" y="1381.75" as="targetPoint" />
          </mxGeometry>
        </mxCell>
        <mxCell id="2OX0B22kOYD27q_Sf0gM-171" value="1&#39;b0" style="text;html=1;align=center;verticalAlign=middle;resizable=0;points=[];autosize=1;strokeColor=none;fillColor=none;" vertex="1" parent="1">
          <mxGeometry x="311" y="1260" width="50" height="30" as="geometry" />
        </mxCell>
        <mxCell id="2OX0B22kOYD27q_Sf0gM-172" value="1&#39;b0" style="text;html=1;align=center;verticalAlign=middle;resizable=0;points=[];autosize=1;strokeColor=none;fillColor=none;" vertex="1" parent="1">
          <mxGeometry x="311" y="1314" width="50" height="30" as="geometry" />
        </mxCell>
        <mxCell id="2OX0B22kOYD27q_Sf0gM-174" value="3bit&lt;div&gt;4x1&lt;/div&gt;&lt;div&gt;Mux&lt;/div&gt;" style="shadow=0;dashed=0;align=center;html=1;strokeWidth=1;shape=mxgraph.electrical.abstract.mux2;whiteSpace=wrap;selectorPins=2;" vertex="1" parent="1">
          <mxGeometry x="932" y="775.5" width="130" height="230" as="geometry" />
        </mxCell>
        <mxCell id="2OX0B22kOYD27q_Sf0gM-175" value="state" style="text;html=1;align=center;verticalAlign=middle;resizable=0;points=[];autosize=1;strokeColor=none;fillColor=none;" vertex="1" parent="1">
          <mxGeometry x="972" y="1005.5" width="50" height="30" as="geometry" />
        </mxCell>
        <mxCell id="2OX0B22kOYD27q_Sf0gM-176" value="[0]" style="text;html=1;align=center;verticalAlign=middle;resizable=0;points=[];autosize=1;strokeColor=none;fillColor=none;" vertex="1" parent="1">
          <mxGeometry x="1004" y="998.5" width="40" height="30" as="geometry" />
        </mxCell>
        <mxCell id="2OX0B22kOYD27q_Sf0gM-177" value="[1]" style="text;html=1;align=center;verticalAlign=middle;resizable=0;points=[];autosize=1;strokeColor=none;fillColor=none;" vertex="1" parent="1">
          <mxGeometry x="950" y="998.5" width="40" height="30" as="geometry" />
        </mxCell>
        <mxCell id="2OX0B22kOYD27q_Sf0gM-178" value="data" style="text;html=1;align=center;verticalAlign=middle;resizable=0;points=[];autosize=1;strokeColor=none;fillColor=none;" vertex="1" parent="1">
          <mxGeometry x="893" y="950.5" width="50" height="30" as="geometry" />
        </mxCell>
        <mxCell id="2OX0B22kOYD27q_Sf0gM-179" value="3bit&lt;div&gt;2x1&lt;/div&gt;&lt;div&gt;Mux&lt;/div&gt;" style="shadow=0;dashed=0;align=center;html=1;strokeWidth=1;shape=mxgraph.electrical.abstract.mux2;whiteSpace=wrap;selectorPins=1;" vertex="1" parent="1">
          <mxGeometry x="782" y="862.5" width="80" height="110" as="geometry" />
        </mxCell>
        <mxCell id="2OX0B22kOYD27q_Sf0gM-180" value="valid" style="text;html=1;align=center;verticalAlign=middle;resizable=0;points=[];autosize=1;strokeColor=none;fillColor=none;" vertex="1" parent="1">
          <mxGeometry x="797" y="962.7" width="50" height="30" as="geometry" />
        </mxCell>
        <mxCell id="2OX0B22kOYD27q_Sf0gM-181" value="data_in" style="text;html=1;align=center;verticalAlign=middle;resizable=0;points=[];autosize=1;strokeColor=none;fillColor=none;fontFamily=Helvetica;fontSize=12;fontColor=default;" vertex="1" parent="1">
          <mxGeometry x="731" y="919.5" width="60" height="30" as="geometry" />
        </mxCell>
        <mxCell id="2OX0B22kOYD27q_Sf0gM-182" value="data" style="text;html=1;align=center;verticalAlign=middle;resizable=0;points=[];autosize=1;strokeColor=none;fillColor=none;fontFamily=Helvetica;fontSize=12;fontColor=default;" vertex="1" parent="1">
          <mxGeometry x="744" y="874.7" width="50" height="30" as="geometry" />
        </mxCell>
        <mxCell id="2OX0B22kOYD27q_Sf0gM-183" value="3bit&lt;div&gt;2x1&lt;/div&gt;&lt;div&gt;Mux&lt;/div&gt;" style="shadow=0;dashed=0;align=center;html=1;strokeWidth=1;shape=mxgraph.electrical.abstract.mux2;whiteSpace=wrap;" vertex="1" parent="1">
          <mxGeometry x="1084.5" y="804.5" width="80" height="120" as="geometry" />
        </mxCell>
        <mxCell id="2OX0B22kOYD27q_Sf0gM-184" value="3&#39;d0" style="text;html=1;align=center;verticalAlign=middle;resizable=0;points=[];autosize=1;strokeColor=none;fillColor=none;" vertex="1" parent="1">
          <mxGeometry x="1044.5" y="818.5" width="50" height="30" as="geometry" />
        </mxCell>
        <mxCell id="2OX0B22kOYD27q_Sf0gM-185" value="rst_n" style="text;html=1;align=center;verticalAlign=middle;resizable=0;points=[];autosize=1;strokeColor=none;fillColor=none;" vertex="1" parent="1">
          <mxGeometry x="1099.5" y="915.5" width="50" height="30" as="geometry" />
        </mxCell>
        <mxCell id="2OX0B22kOYD27q_Sf0gM-186" value="data" style="text;html=1;align=center;verticalAlign=middle;resizable=0;points=[];autosize=1;strokeColor=none;fillColor=none;" vertex="1" parent="1">
          <mxGeometry x="1254" y="844.7" width="50" height="30" as="geometry" />
        </mxCell>
        <mxCell id="2OX0B22kOYD27q_Sf0gM-187" style="edgeStyle=orthogonalEdgeStyle;rounded=0;orthogonalLoop=1;jettySize=auto;html=1;exitX=1;exitY=0.5;exitDx=0;exitDy=-5;exitPerimeter=0;entryX=0;entryY=0.65;entryDx=0;entryDy=3;entryPerimeter=0;endArrow=none;endFill=0;" edge="1" parent="1" target="2OX0B22kOYD27q_Sf0gM-183">
          <mxGeometry relative="1" as="geometry">
            <mxPoint x="1061.5" y="885.5" as="sourcePoint" />
          </mxGeometry>
        </mxCell>
        <mxCell id="2OX0B22kOYD27q_Sf0gM-188" value="" style="verticalLabelPosition=bottom;shadow=0;dashed=0;align=center;html=1;verticalAlign=top;shape=stencil(rVXBjoMgEP0ajruxENteN269N9kfQEsrKQJBatu/XxCbFC3K1k30wBuc92aYhwBlTYUlATDBjSSlBugbQNhiRXHBDAxNpHLgNnFLjmviEPMmP/fu65xR+ZEzId2eRitxJld60P3HlFdEUe2iV4etki4j2oHky6D2QVkpODc6qOCNF3mKm+SYcj2UYjNLQ1ITTZRDe8U3b3XvV58wdQCA+V+odm9Qbd6j2kdQrSKrQplBQt1FWYHL80mJCz+8FKjsbIxGoT/Ita9oWP2EngAryo5CkQk5R8qYm7GJpkpsp28UeIRr0ZLQiYVE+xkY5SRYdlyKKRHr5SLiUvgitstb0Tt7US8GlaSTDnotA/1/P2d8bPDA1JmLdm5eNblZj2FGT9zRlYRb1z+uVO+qa5/2FUJrUfsmTP0TmBEeyb2P4t7EcXftGhm9Q91PqQN+AQ==);" vertex="1" parent="1">
          <mxGeometry x="1164.5" y="839.5" width="100" height="80" as="geometry" />
        </mxCell>
        <mxCell id="2OX0B22kOYD27q_Sf0gM-189" value="clk" style="text;html=1;align=center;verticalAlign=middle;resizable=0;points=[];autosize=1;strokeColor=none;fillColor=none;fontFamily=Helvetica;fontSize=12;fontColor=default;" vertex="1" parent="1">
          <mxGeometry x="1146.5" y="892.5" width="40" height="30" as="geometry" />
        </mxCell>
        <mxCell id="2OX0B22kOYD27q_Sf0gM-190" value="3bit&lt;div&gt;DFF&lt;/div&gt;" style="text;html=1;align=center;verticalAlign=middle;resizable=0;points=[];autosize=1;strokeColor=none;fillColor=none;fontFamily=Helvetica;fontSize=12;fontColor=default;" vertex="1" parent="1">
          <mxGeometry x="1189.5" y="859.5" width="50" height="40" as="geometry" />
        </mxCell>
        <mxCell id="2OX0B22kOYD27q_Sf0gM-191" style="edgeStyle=orthogonalEdgeStyle;rounded=0;orthogonalLoop=1;jettySize=auto;html=1;exitX=1;exitY=0.5;exitDx=0;exitDy=-5;exitPerimeter=0;entryX=0;entryY=0.5815217391304348;entryDx=0;entryDy=3;entryPerimeter=0;fontFamily=Helvetica;fontSize=12;fontColor=default;endArrow=none;endFill=0;" edge="1" parent="1" source="2OX0B22kOYD27q_Sf0gM-179">
          <mxGeometry relative="1" as="geometry">
            <mxPoint x="932" y="912.25" as="targetPoint" />
          </mxGeometry>
        </mxCell>
        <mxCell id="2OX0B22kOYD27q_Sf0gM-192" value="data" style="text;html=1;align=center;verticalAlign=middle;resizable=0;points=[];autosize=1;strokeColor=none;fillColor=none;" vertex="1" parent="1">
          <mxGeometry x="893" y="790.5" width="50" height="30" as="geometry" />
        </mxCell>
        <mxCell id="2OX0B22kOYD27q_Sf0gM-193" value="data" style="text;html=1;align=center;verticalAlign=middle;resizable=0;points=[];autosize=1;strokeColor=none;fillColor=none;" vertex="1" parent="1">
          <mxGeometry x="893" y="843.5" width="50" height="30" as="geometry" />
        </mxCell>
        <mxCell id="2OX0B22kOYD27q_Sf0gM-197" value="" style="group" vertex="1" connectable="0" parent="1">
          <mxGeometry x="770" y="867" width="30" height="30" as="geometry" />
        </mxCell>
        <mxCell id="2OX0B22kOYD27q_Sf0gM-198" value="" style="endArrow=none;html=1;rounded=0;" edge="1" parent="2OX0B22kOYD27q_Sf0gM-197">
          <mxGeometry width="50" height="50" relative="1" as="geometry">
            <mxPoint x="14" y="26" as="sourcePoint" />
            <mxPoint x="20" y="18" as="targetPoint" />
          </mxGeometry>
        </mxCell>
        <mxCell id="2OX0B22kOYD27q_Sf0gM-199" value="&lt;font style=&quot;font-size: 8px;&quot;&gt;3&lt;/font&gt;" style="text;html=1;align=center;verticalAlign=middle;resizable=1;points=[];autosize=1;strokeColor=none;fillColor=none;movable=1;rotatable=1;deletable=1;editable=1;locked=0;connectable=1;" vertex="1" parent="2OX0B22kOYD27q_Sf0gM-197">
          <mxGeometry width="30" height="30" as="geometry" />
        </mxCell>
        <mxCell id="2OX0B22kOYD27q_Sf0gM-200" value="" style="group" vertex="1" connectable="0" parent="1">
          <mxGeometry x="770" y="915" width="30" height="30" as="geometry" />
        </mxCell>
        <mxCell id="2OX0B22kOYD27q_Sf0gM-201" value="" style="endArrow=none;html=1;rounded=0;" edge="1" parent="2OX0B22kOYD27q_Sf0gM-200">
          <mxGeometry width="50" height="50" relative="1" as="geometry">
            <mxPoint x="14" y="26" as="sourcePoint" />
            <mxPoint x="20" y="18" as="targetPoint" />
          </mxGeometry>
        </mxCell>
        <mxCell id="2OX0B22kOYD27q_Sf0gM-202" value="&lt;font style=&quot;font-size: 8px;&quot;&gt;3&lt;/font&gt;" style="text;html=1;align=center;verticalAlign=middle;resizable=1;points=[];autosize=1;strokeColor=none;fillColor=none;movable=1;rotatable=1;deletable=1;editable=1;locked=0;connectable=1;" vertex="1" parent="2OX0B22kOYD27q_Sf0gM-200">
          <mxGeometry width="30" height="30" as="geometry" />
        </mxCell>
        <mxCell id="2OX0B22kOYD27q_Sf0gM-203" value="" style="group" vertex="1" connectable="0" parent="1">
          <mxGeometry x="920" y="890" width="30" height="30" as="geometry" />
        </mxCell>
        <mxCell id="2OX0B22kOYD27q_Sf0gM-204" value="" style="endArrow=none;html=1;rounded=0;" edge="1" parent="2OX0B22kOYD27q_Sf0gM-203">
          <mxGeometry width="50" height="50" relative="1" as="geometry">
            <mxPoint x="14" y="26" as="sourcePoint" />
            <mxPoint x="20" y="18" as="targetPoint" />
          </mxGeometry>
        </mxCell>
        <mxCell id="2OX0B22kOYD27q_Sf0gM-205" value="&lt;font style=&quot;font-size: 8px;&quot;&gt;3&lt;/font&gt;" style="text;html=1;align=center;verticalAlign=middle;resizable=1;points=[];autosize=1;strokeColor=none;fillColor=none;movable=1;rotatable=1;deletable=1;editable=1;locked=0;connectable=1;" vertex="1" parent="2OX0B22kOYD27q_Sf0gM-203">
          <mxGeometry width="30" height="30" as="geometry" />
        </mxCell>
        <mxCell id="2OX0B22kOYD27q_Sf0gM-206" value="" style="group" vertex="1" connectable="0" parent="1">
          <mxGeometry x="920" y="837" width="30" height="30" as="geometry" />
        </mxCell>
        <mxCell id="2OX0B22kOYD27q_Sf0gM-207" value="" style="endArrow=none;html=1;rounded=0;" edge="1" parent="2OX0B22kOYD27q_Sf0gM-206">
          <mxGeometry width="50" height="50" relative="1" as="geometry">
            <mxPoint x="14" y="26" as="sourcePoint" />
            <mxPoint x="20" y="18" as="targetPoint" />
          </mxGeometry>
        </mxCell>
        <mxCell id="2OX0B22kOYD27q_Sf0gM-208" value="&lt;font style=&quot;font-size: 8px;&quot;&gt;3&lt;/font&gt;" style="text;html=1;align=center;verticalAlign=middle;resizable=1;points=[];autosize=1;strokeColor=none;fillColor=none;movable=1;rotatable=1;deletable=1;editable=1;locked=0;connectable=1;" vertex="1" parent="2OX0B22kOYD27q_Sf0gM-206">
          <mxGeometry width="30" height="30" as="geometry" />
        </mxCell>
        <mxCell id="2OX0B22kOYD27q_Sf0gM-209" value="" style="group" vertex="1" connectable="0" parent="1">
          <mxGeometry x="920" y="944" width="30" height="30" as="geometry" />
        </mxCell>
        <mxCell id="2OX0B22kOYD27q_Sf0gM-210" value="" style="endArrow=none;html=1;rounded=0;" edge="1" parent="2OX0B22kOYD27q_Sf0gM-209">
          <mxGeometry width="50" height="50" relative="1" as="geometry">
            <mxPoint x="14" y="26" as="sourcePoint" />
            <mxPoint x="20" y="18" as="targetPoint" />
          </mxGeometry>
        </mxCell>
        <mxCell id="2OX0B22kOYD27q_Sf0gM-211" value="&lt;font style=&quot;font-size: 8px;&quot;&gt;3&lt;/font&gt;" style="text;html=1;align=center;verticalAlign=middle;resizable=1;points=[];autosize=1;strokeColor=none;fillColor=none;movable=1;rotatable=1;deletable=1;editable=1;locked=0;connectable=1;" vertex="1" parent="2OX0B22kOYD27q_Sf0gM-209">
          <mxGeometry width="30" height="30" as="geometry" />
        </mxCell>
        <mxCell id="2OX0B22kOYD27q_Sf0gM-212" value="" style="group" vertex="1" connectable="0" parent="1">
          <mxGeometry x="920" y="783" width="30" height="30" as="geometry" />
        </mxCell>
        <mxCell id="2OX0B22kOYD27q_Sf0gM-213" value="" style="endArrow=none;html=1;rounded=0;" edge="1" parent="2OX0B22kOYD27q_Sf0gM-212">
          <mxGeometry width="50" height="50" relative="1" as="geometry">
            <mxPoint x="14" y="26" as="sourcePoint" />
            <mxPoint x="20" y="18" as="targetPoint" />
          </mxGeometry>
        </mxCell>
        <mxCell id="2OX0B22kOYD27q_Sf0gM-214" value="&lt;font style=&quot;font-size: 8px;&quot;&gt;3&lt;/font&gt;" style="text;html=1;align=center;verticalAlign=middle;resizable=1;points=[];autosize=1;strokeColor=none;fillColor=none;movable=1;rotatable=1;deletable=1;editable=1;locked=0;connectable=1;" vertex="1" parent="2OX0B22kOYD27q_Sf0gM-212">
          <mxGeometry width="30" height="30" as="geometry" />
        </mxCell>
        <mxCell id="2OX0B22kOYD27q_Sf0gM-215" value="" style="group" vertex="1" connectable="0" parent="1">
          <mxGeometry x="1073" y="812" width="30" height="30" as="geometry" />
        </mxCell>
        <mxCell id="2OX0B22kOYD27q_Sf0gM-216" value="" style="endArrow=none;html=1;rounded=0;" edge="1" parent="2OX0B22kOYD27q_Sf0gM-215">
          <mxGeometry width="50" height="50" relative="1" as="geometry">
            <mxPoint x="14" y="26" as="sourcePoint" />
            <mxPoint x="20" y="18" as="targetPoint" />
          </mxGeometry>
        </mxCell>
        <mxCell id="2OX0B22kOYD27q_Sf0gM-217" value="&lt;font style=&quot;font-size: 8px;&quot;&gt;3&lt;/font&gt;" style="text;html=1;align=center;verticalAlign=middle;resizable=1;points=[];autosize=1;strokeColor=none;fillColor=none;movable=1;rotatable=1;deletable=1;editable=1;locked=0;connectable=1;" vertex="1" parent="2OX0B22kOYD27q_Sf0gM-215">
          <mxGeometry width="30" height="30" as="geometry" />
        </mxCell>
        <mxCell id="2OX0B22kOYD27q_Sf0gM-218" value="" style="group" vertex="1" connectable="0" parent="1">
          <mxGeometry x="1073" y="864" width="30" height="30" as="geometry" />
        </mxCell>
        <mxCell id="2OX0B22kOYD27q_Sf0gM-219" value="" style="endArrow=none;html=1;rounded=0;" edge="1" parent="2OX0B22kOYD27q_Sf0gM-218">
          <mxGeometry width="50" height="50" relative="1" as="geometry">
            <mxPoint x="14" y="26" as="sourcePoint" />
            <mxPoint x="20" y="18" as="targetPoint" />
          </mxGeometry>
        </mxCell>
        <mxCell id="2OX0B22kOYD27q_Sf0gM-220" value="&lt;font style=&quot;font-size: 8px;&quot;&gt;3&lt;/font&gt;" style="text;html=1;align=center;verticalAlign=middle;resizable=1;points=[];autosize=1;strokeColor=none;fillColor=none;movable=1;rotatable=1;deletable=1;editable=1;locked=0;connectable=1;" vertex="1" parent="2OX0B22kOYD27q_Sf0gM-218">
          <mxGeometry width="30" height="30" as="geometry" />
        </mxCell>
        <mxCell id="2OX0B22kOYD27q_Sf0gM-221" value="" style="group" vertex="1" connectable="0" parent="1">
          <mxGeometry x="1163" y="838" width="30" height="30" as="geometry" />
        </mxCell>
        <mxCell id="2OX0B22kOYD27q_Sf0gM-222" value="" style="endArrow=none;html=1;rounded=0;" edge="1" parent="2OX0B22kOYD27q_Sf0gM-221">
          <mxGeometry width="50" height="50" relative="1" as="geometry">
            <mxPoint x="14" y="26" as="sourcePoint" />
            <mxPoint x="20" y="18" as="targetPoint" />
          </mxGeometry>
        </mxCell>
        <mxCell id="2OX0B22kOYD27q_Sf0gM-223" value="&lt;font style=&quot;font-size: 8px;&quot;&gt;3&lt;/font&gt;" style="text;html=1;align=center;verticalAlign=middle;resizable=1;points=[];autosize=1;strokeColor=none;fillColor=none;movable=1;rotatable=1;deletable=1;editable=1;locked=0;connectable=1;" vertex="1" parent="2OX0B22kOYD27q_Sf0gM-221">
          <mxGeometry width="30" height="30" as="geometry" />
        </mxCell>
        <mxCell id="2OX0B22kOYD27q_Sf0gM-224" value="" style="group" vertex="1" connectable="0" parent="1">
          <mxGeometry x="1233" y="838" width="30" height="30" as="geometry" />
        </mxCell>
        <mxCell id="2OX0B22kOYD27q_Sf0gM-225" value="" style="endArrow=none;html=1;rounded=0;" edge="1" parent="2OX0B22kOYD27q_Sf0gM-224">
          <mxGeometry width="50" height="50" relative="1" as="geometry">
            <mxPoint x="14" y="26" as="sourcePoint" />
            <mxPoint x="20" y="18" as="targetPoint" />
          </mxGeometry>
        </mxCell>
        <mxCell id="2OX0B22kOYD27q_Sf0gM-226" value="&lt;font style=&quot;font-size: 8px;&quot;&gt;3&lt;/font&gt;" style="text;html=1;align=center;verticalAlign=middle;resizable=1;points=[];autosize=1;strokeColor=none;fillColor=none;movable=1;rotatable=1;deletable=1;editable=1;locked=0;connectable=1;" vertex="1" parent="2OX0B22kOYD27q_Sf0gM-224">
          <mxGeometry width="30" height="30" as="geometry" />
        </mxCell>
        <mxCell id="2OX0B22kOYD27q_Sf0gM-252" value="1bit&lt;div&gt;4x1&lt;/div&gt;&lt;div&gt;Mux&lt;/div&gt;" style="shadow=0;dashed=0;align=center;html=1;strokeWidth=1;shape=mxgraph.electrical.abstract.mux2;whiteSpace=wrap;selectorPins=2;" vertex="1" parent="1">
          <mxGeometry x="932" y="1038" width="130" height="230" as="geometry" />
        </mxCell>
        <mxCell id="2OX0B22kOYD27q_Sf0gM-253" value="state" style="text;html=1;align=center;verticalAlign=middle;resizable=0;points=[];autosize=1;strokeColor=none;fillColor=none;" vertex="1" parent="1">
          <mxGeometry x="972" y="1268" width="50" height="30" as="geometry" />
        </mxCell>
        <mxCell id="2OX0B22kOYD27q_Sf0gM-254" value="[0]" style="text;html=1;align=center;verticalAlign=middle;resizable=0;points=[];autosize=1;strokeColor=none;fillColor=none;" vertex="1" parent="1">
          <mxGeometry x="1004" y="1261" width="40" height="30" as="geometry" />
        </mxCell>
        <mxCell id="2OX0B22kOYD27q_Sf0gM-255" value="[1]" style="text;html=1;align=center;verticalAlign=middle;resizable=0;points=[];autosize=1;strokeColor=none;fillColor=none;" vertex="1" parent="1">
          <mxGeometry x="950" y="1261" width="40" height="30" as="geometry" />
        </mxCell>
        <mxCell id="2OX0B22kOYD27q_Sf0gM-257" value="2bit&lt;div&gt;2x1&lt;/div&gt;&lt;div&gt;Mux&lt;/div&gt;" style="shadow=0;dashed=0;align=center;html=1;strokeWidth=1;shape=mxgraph.electrical.abstract.mux2;whiteSpace=wrap;selectorPins=1;" vertex="1" parent="1">
          <mxGeometry x="782" y="1139.4499999999998" width="80" height="110" as="geometry" />
        </mxCell>
        <mxCell id="2OX0B22kOYD27q_Sf0gM-258" value="done" style="text;html=1;align=center;verticalAlign=middle;resizable=0;points=[];autosize=1;strokeColor=none;fillColor=none;" vertex="1" parent="1">
          <mxGeometry x="797" y="1239.6499999999999" width="50" height="30" as="geometry" />
        </mxCell>
        <mxCell id="2OX0B22kOYD27q_Sf0gM-259" value="1&#39;b0" style="text;html=1;align=center;verticalAlign=middle;resizable=0;points=[];autosize=1;strokeColor=none;fillColor=none;fontFamily=Helvetica;fontSize=12;fontColor=default;" vertex="1" parent="1">
          <mxGeometry x="744" y="1198.4499999999998" width="50" height="30" as="geometry" />
        </mxCell>
        <mxCell id="2OX0B22kOYD27q_Sf0gM-260" value="1&#39;b1" style="text;html=1;align=center;verticalAlign=middle;resizable=0;points=[];autosize=1;strokeColor=none;fillColor=none;fontFamily=Helvetica;fontSize=12;fontColor=default;" vertex="1" parent="1">
          <mxGeometry x="744" y="1151.6499999999999" width="50" height="30" as="geometry" />
        </mxCell>
        <mxCell id="2OX0B22kOYD27q_Sf0gM-261" value="1bit&lt;div&gt;2x1&lt;/div&gt;&lt;div&gt;Mux&lt;/div&gt;" style="shadow=0;dashed=0;align=center;html=1;strokeWidth=1;shape=mxgraph.electrical.abstract.mux2;whiteSpace=wrap;" vertex="1" parent="1">
          <mxGeometry x="1084.5" y="1067" width="80" height="120" as="geometry" />
        </mxCell>
        <mxCell id="2OX0B22kOYD27q_Sf0gM-262" value="1&#39;d0" style="text;html=1;align=center;verticalAlign=middle;resizable=0;points=[];autosize=1;strokeColor=none;fillColor=none;" vertex="1" parent="1">
          <mxGeometry x="1045.5" y="1081" width="50" height="30" as="geometry" />
        </mxCell>
        <mxCell id="2OX0B22kOYD27q_Sf0gM-263" value="rst_n" style="text;html=1;align=center;verticalAlign=middle;resizable=0;points=[];autosize=1;strokeColor=none;fillColor=none;" vertex="1" parent="1">
          <mxGeometry x="1099.5" y="1178" width="50" height="30" as="geometry" />
        </mxCell>
        <mxCell id="2OX0B22kOYD27q_Sf0gM-264" value="start" style="text;html=1;align=center;verticalAlign=middle;resizable=0;points=[];autosize=1;strokeColor=none;fillColor=none;" vertex="1" parent="1">
          <mxGeometry x="1254" y="1107.2" width="50" height="30" as="geometry" />
        </mxCell>
        <mxCell id="2OX0B22kOYD27q_Sf0gM-265" style="edgeStyle=orthogonalEdgeStyle;rounded=0;orthogonalLoop=1;jettySize=auto;html=1;exitX=1;exitY=0.5;exitDx=0;exitDy=-5;exitPerimeter=0;entryX=0;entryY=0.65;entryDx=0;entryDy=3;entryPerimeter=0;endArrow=none;endFill=0;" edge="1" parent="1" target="2OX0B22kOYD27q_Sf0gM-261">
          <mxGeometry relative="1" as="geometry">
            <mxPoint x="1061.5" y="1148" as="sourcePoint" />
          </mxGeometry>
        </mxCell>
        <mxCell id="2OX0B22kOYD27q_Sf0gM-266" value="" style="verticalLabelPosition=bottom;shadow=0;dashed=0;align=center;html=1;verticalAlign=top;shape=stencil(rVXBjoMgEP0ajruxENteN269N9kfQEsrKQJBatu/XxCbFC3K1k30wBuc92aYhwBlTYUlATDBjSSlBugbQNhiRXHBDAxNpHLgNnFLjmviEPMmP/fu65xR+ZEzId2eRitxJld60P3HlFdEUe2iV4etki4j2oHky6D2QVkpODc6qOCNF3mKm+SYcj2UYjNLQ1ITTZRDe8U3b3XvV58wdQCA+V+odm9Qbd6j2kdQrSKrQplBQt1FWYHL80mJCz+8FKjsbIxGoT/Ita9oWP2EngAryo5CkQk5R8qYm7GJpkpsp28UeIRr0ZLQiYVE+xkY5SRYdlyKKRHr5SLiUvgitstb0Tt7US8GlaSTDnotA/1/P2d8bPDA1JmLdm5eNblZj2FGT9zRlYRb1z+uVO+qa5/2FUJrUfsmTP0TmBEeyb2P4t7EcXftGhm9Q91PqQN+AQ==);" vertex="1" parent="1">
          <mxGeometry x="1164.5" y="1102" width="100" height="80" as="geometry" />
        </mxCell>
        <mxCell id="2OX0B22kOYD27q_Sf0gM-267" value="clk" style="text;html=1;align=center;verticalAlign=middle;resizable=0;points=[];autosize=1;strokeColor=none;fillColor=none;fontFamily=Helvetica;fontSize=12;fontColor=default;" vertex="1" parent="1">
          <mxGeometry x="1146.5" y="1155" width="40" height="30" as="geometry" />
        </mxCell>
        <mxCell id="2OX0B22kOYD27q_Sf0gM-268" value="3bit&lt;div&gt;DFF&lt;/div&gt;" style="text;html=1;align=center;verticalAlign=middle;resizable=0;points=[];autosize=1;strokeColor=none;fillColor=none;fontFamily=Helvetica;fontSize=12;fontColor=default;" vertex="1" parent="1">
          <mxGeometry x="1189.5" y="1122" width="50" height="40" as="geometry" />
        </mxCell>
        <mxCell id="2OX0B22kOYD27q_Sf0gM-302" value="1&#39;d0" style="text;html=1;align=center;verticalAlign=middle;resizable=0;points=[];autosize=1;strokeColor=none;fillColor=none;fontFamily=Helvetica;fontSize=12;fontColor=default;" vertex="1" parent="1">
          <mxGeometry x="893" y="1214" width="50" height="30" as="geometry" />
        </mxCell>
        <mxCell id="2OX0B22kOYD27q_Sf0gM-303" value="1&#39;d0" style="text;html=1;align=center;verticalAlign=middle;resizable=0;points=[];autosize=1;strokeColor=none;fillColor=none;fontFamily=Helvetica;fontSize=12;fontColor=default;" vertex="1" parent="1">
          <mxGeometry x="893" y="1160" width="50" height="30" as="geometry" />
        </mxCell>
        <mxCell id="2OX0B22kOYD27q_Sf0gM-304" value="2bit&lt;div&gt;2x1&lt;/div&gt;&lt;div&gt;Mux&lt;/div&gt;" style="shadow=0;dashed=0;align=center;html=1;strokeWidth=1;shape=mxgraph.electrical.abstract.mux2;whiteSpace=wrap;selectorPins=1;" vertex="1" parent="1">
          <mxGeometry x="782" y="1017.35" width="80" height="110" as="geometry" />
        </mxCell>
        <mxCell id="2OX0B22kOYD27q_Sf0gM-305" value="request" style="text;html=1;align=center;verticalAlign=middle;resizable=0;points=[];autosize=1;strokeColor=none;fillColor=none;" vertex="1" parent="1">
          <mxGeometry x="792" y="1117.55" width="60" height="30" as="geometry" />
        </mxCell>
        <mxCell id="2OX0B22kOYD27q_Sf0gM-306" value="1&#39;b1" style="text;html=1;align=center;verticalAlign=middle;resizable=0;points=[];autosize=1;strokeColor=none;fillColor=none;fontFamily=Helvetica;fontSize=12;fontColor=default;" vertex="1" parent="1">
          <mxGeometry x="744" y="1076.35" width="50" height="30" as="geometry" />
        </mxCell>
        <mxCell id="2OX0B22kOYD27q_Sf0gM-307" value="1&#39;b0" style="text;html=1;align=center;verticalAlign=middle;resizable=0;points=[];autosize=1;strokeColor=none;fillColor=none;fontFamily=Helvetica;fontSize=12;fontColor=default;" vertex="1" parent="1">
          <mxGeometry x="744" y="1028.55" width="50" height="30" as="geometry" />
        </mxCell>
        <mxCell id="2OX0B22kOYD27q_Sf0gM-308" style="edgeStyle=orthogonalEdgeStyle;rounded=0;orthogonalLoop=1;jettySize=auto;html=1;exitX=1;exitY=0.5;exitDx=0;exitDy=-5;exitPerimeter=0;entryX=0;entryY=0.11630434782608695;entryDx=0;entryDy=3;entryPerimeter=0;fontFamily=Helvetica;fontSize=12;fontColor=default;endArrow=none;endFill=0;" edge="1" parent="1" source="2OX0B22kOYD27q_Sf0gM-304" target="2OX0B22kOYD27q_Sf0gM-252">
          <mxGeometry relative="1" as="geometry" />
        </mxCell>
        <mxCell id="2OX0B22kOYD27q_Sf0gM-309" style="edgeStyle=orthogonalEdgeStyle;rounded=0;orthogonalLoop=1;jettySize=auto;html=1;exitX=1;exitY=0.5;exitDx=0;exitDy=-5;exitPerimeter=0;entryX=0;entryY=0.34891304347826085;entryDx=0;entryDy=3;entryPerimeter=0;fontFamily=Helvetica;fontSize=12;fontColor=default;endArrow=none;endFill=0;" edge="1" parent="1" source="2OX0B22kOYD27q_Sf0gM-257" target="2OX0B22kOYD27q_Sf0gM-252">
          <mxGeometry relative="1" as="geometry">
            <Array as="points">
              <mxPoint x="874" y="1190" />
              <mxPoint x="874" y="1121" />
            </Array>
          </mxGeometry>
        </mxCell>
      </root>
    </mxGraphModel>
  </diagram>
</mxfile>
